<svg width="414" height="736" xmlns="http://www.w3.org/2000/svg">

 <g>
  <title>Layer 1</title>
  <g stroke="null">
   <path stroke="null" d="m-1666.66656,796.06626l29.19753,-109.46402c29.19753,-108.4386 87.59259,-328.90478 145.98765,-341.72258c58.39506,-12.8178 116.79012,176.88565 175.18518,259.68865c58.39506,81.26486 116.79012,55.62926 175.18518,-41.01696c58.39506,-95.6208 116.79012,-259.68865 175.18518,-300.70561c58.39506,-41.01696 116.79012,41.01696 175.18518,41.01696c58.39506,0 116.79012,-82.03393 175.18518,-13.58687c58.39506,67.42163 116.79012,287.88781 175.18518,355.30945c58.39506,68.44706 116.79012,-13.58687 175.18518,-109.20767c58.39506,-96.64622 116.79012,-204.31575 175.18518,-287.11874c58.39506,-81.26486 116.79012,-137.66318 175.18518,-123.05089c58.39506,13.58687 116.79012,95.6208 175.18518,136.63776c58.39506,41.01696 116.79012,41.01696 145.98765,41.01696l29.19753,0l0,574.23749l-29.19753,0c-29.19753,0 -87.59259,0 -145.98765,0c-58.39506,0 -116.79012,0 -175.18518,0c-58.39506,0 -116.79012,0 -175.18518,0c-58.39506,0 -116.79012,0 -175.18518,0c-58.39506,0 -116.79012,0 -175.18518,0c-58.39506,0 -116.79012,0 -175.18518,0c-58.39506,0 -116.79012,0 -175.18518,0c-58.39506,0 -116.79012,0 -175.18518,0c-58.39506,0 -116.79012,0 -175.18518,0c-58.39506,0 -116.79012,0 -175.18518,0c-58.39506,0 -116.79012,0 -175.18518,0c-58.39506,0 -116.79012,0 -145.98765,0l-29.19753,0l0,-82.03393z" fill="#0099ff"/>
  </g>
 </g>
</svg>